<?xml version="1.0" encoding="UTF-8"?>
<svg width="35px" height="35px" viewBox="0 0 35 35" version="1.1" xmlns="http://www.w3.org/2000/svg" xmlns:xlink="http://www.w3.org/1999/xlink">
    <!-- Generator: Sketch 58 (84663) - https://sketch.com -->
    <title>finance-new-home-icon</title>
    <desc>Created with Sketch.</desc>
    <g id="Products" stroke="none" stroke-width="1" fill="none" fill-rule="evenodd">
        <g id="rate_check_address_lightbox_image_r1" transform="translate(-811.000000, -366.000000)">
            <g id="finance-new-home-icon" transform="translate(811.000000, 366.000000)">
                <path d="M25.92162,12.96054 C25.92162,20.11878 20.11878,25.92162 12.96108,25.92162 C5.80284,25.92162 0,20.11878 0,12.96054 C0,5.8023 5.80284,0 12.96108,0 C20.11932,0 25.92162,5.8023 25.92162,12.96054 Z" id="Fill-1" fill="#CDCFD0"></path>
                <path d="M32.40162,28.08162 L9.72162,28.08162 C9.12492,28.08162 8.64162,27.59832 8.64162,27.00162 L8.64162,9.72162 C8.64162,9.12546 9.12492,8.64162 9.72162,8.64162 L32.40162,8.64162 C32.99778,8.64162 33.48162,9.12546 33.48162,9.72162 L33.48162,27.00162 C33.48162,27.59832 32.99778,28.08162 32.40162,28.08162 Z" id="Fill-2" fill="#FFFFFF"></path>
                <path d="M32.40162,28.62162 C33.29586,28.62162 34.02162,27.89667 34.02162,27.00162 L34.02162,9.72162 C34.02162,8.82738 33.29586,8.10162 32.40162,8.10162 C32.40162,8.10162 9.72162,8.10162 9.72162,8.10162 C8.82657,8.10162 8.10162,8.82738 8.10162,9.72162 L8.10162,27.00162 C8.10162,27.89667 8.82657,28.62162 9.72162,28.62162 C9.72162,28.62162 32.40162,28.62162 32.40162,28.62162 Z M32.40162,27.54162 L9.72162,27.54162 C9.42327,27.54162 9.18162,27.29997 9.18162,27.00162 C9.18162,27.00162 9.18162,9.72162 9.18162,9.72162 C9.18162,9.42354 9.42327,9.18162 9.72162,9.18162 L32.40162,9.18162 C32.6997,9.18162 32.94162,9.42354 32.94162,9.72162 C32.94162,9.72162 32.94162,27.00162 32.94162,27.00162 C32.94162,27.29997 32.6997,27.54162 32.40162,27.54162 Z" id="Fill-3" fill="#295183"></path>
                <path d="M33.48162,5.40162 L5.94162,5.40162 C5.643594,5.40162 5.40162,5.643594 5.40162,5.94162 C5.40162,6.239646 5.643594,6.48162 5.94162,6.48162 L33.48162,6.48162 C33.779646,6.48162 34.02162,6.239646 34.02162,5.94162 C34.02162,5.643594 33.779646,5.40162 33.48162,5.40162 Z" id="Fill-4" fill="#295183"></path>
                <path d="M12.96162,5.40162 L12.96162,8.64162 C12.96162,8.939646 13.203594,9.18162 13.50162,9.18162 C13.799646,9.18162 14.04162,8.939646 14.04162,8.64162 L14.04162,5.40162 C14.04162,5.103594 13.799646,4.86162 13.50162,4.86162 C13.203594,4.86162 12.96162,5.103594 12.96162,5.40162 Z" id="Fill-5" fill="#295183"></path>
                <path d="M27.54162,5.40162 L27.54162,8.64162 C27.54162,8.939646 27.783594,9.18162 28.08162,9.18162 C28.379646,9.18162 28.62162,8.939646 28.62162,8.64162 L28.62162,5.40162 C28.62162,5.103594 28.379646,4.86162 28.08162,4.86162 C27.783594,4.86162 27.54162,5.103594 27.54162,5.40162 Z" id="Fill-6" fill="#295183"></path>
                <path d="M17.28162,12.96162 L17.28162,15.12162 L16.20162,15.12162 L16.20162,12.42162 C16.20162,12.123378 16.443378,11.88162 16.74162,11.88162 L18.90162,11.88162 L18.90162,12.96162 L17.28162,12.96162 Z" id="Fill-7" fill="#295183"></path>
                <path d="M17.28162,15.66162 L17.28162,17.28162 L16.20162,17.28162 L16.20162,15.12162 C16.20162,14.823378 16.443378,14.58162 16.74162,14.58162 L18.90162,14.58162 L18.90162,15.66162 L17.28162,15.66162 Z" id="Fill-8" fill="#295183"></path>
                <path d="M24.84162,15.66162 C25.73586,15.66162 26.46162,14.93667 26.46162,14.04162 L26.46162,13.50162 C26.46162,12.60738 25.73586,11.88162 24.84162,11.88162 L23.76162,11.88162 C23.463378,11.88162 23.22162,12.123378 23.22162,12.42162 L23.22162,15.12162 C23.22162,15.419862 23.463378,15.66162 23.76162,15.66162 L24.84162,15.66162 Z M24.30162,14.58162 L24.84162,14.58162 C25.1397,14.58162 25.38162,14.33997 25.38162,14.04162 C25.38162,14.04162 25.38162,13.50162 25.38162,13.50162 C25.38162,13.20354 25.1397,12.96162 24.84162,12.96162 L24.30162,12.96162 L24.30162,14.58162 Z" id="Fill-9" fill="#295183"></path>
                <path d="M24.30162,15.66162 L24.30162,17.28162 L23.22162,17.28162 L23.22162,15.12162 C23.22162,14.823378 23.463378,14.58162 23.76162,14.58162 C23.76162,14.58162 24.30162,14.58162 24.30162,14.58162 C25.494642,14.58162 26.46162,15.548598 26.46162,16.74162 L26.46162,17.28162 L25.38162,17.28162 C25.38162,17.28162 25.38162,16.74162 25.38162,16.74162 C25.38162,16.145082 24.898158,15.66162 24.30162,15.66162 Z" id="Fill-10" fill="#295183"></path>
                <polygon id="Fill-11" fill="#295183" points="29.16162 21.60162 26.46162 21.60162 26.46162 22.68162 29.16162 22.68162"></polygon>
                <path d="M27.00162,24.30162 L29.70162,24.30162 L29.70162,25.38162 L26.46162,25.38162 C26.163378,25.38162 25.92162,25.139862 25.92162,24.84162 L25.92162,19.44162 C25.92162,19.143378 26.163378,18.90162 26.46162,18.90162 L29.70162,18.90162 L29.70162,19.98162 L27.00162,19.98162 L27.00162,24.30162 Z" id="Fill-12" fill="#295183"></path>
                <path d="M21.60162,17.28162 C22.19778,17.28162 22.68162,16.79886 22.68162,16.20162 L22.68162,12.96162 C22.68162,12.36438 22.19778,11.88162 21.60162,11.88162 L20.52162,11.88162 C19.92438,11.88162 19.44162,12.36438 19.44162,12.96162 L19.44162,16.20162 C19.44162,16.79886 19.92438,17.28162 20.52162,17.28162 L21.60162,17.28162 Z M21.60162,16.20162 L20.52162,16.20162 L20.52162,12.96162 L21.60162,12.96162 L21.60162,16.20162 Z" id="Fill-13" fill="#295183"></path>
                <path d="M12.42162,23.76162 C12.42162,24.65667 13.14657,25.38162 14.04162,25.38162 L15.12162,25.38162 C16.01586,25.38162 16.74162,24.65667 16.74162,23.76162 C16.74162,23.76162 16.74162,23.45976 16.74162,23.45976 C16.74162,22.763106 16.29531,22.143348 15.633486,21.923028 C15.633594,21.923082 13.870494,21.335562 13.870494,21.335562 C13.87044,21.335562 13.87044,21.335508 13.870386,21.335508 C13.649904,21.262122 13.50162,21.055572 13.50162,20.82348 L13.50162,20.52162 C13.50162,20.22354 13.74327,19.98162 14.04162,19.98162 C14.04162,19.98162 15.12162,19.98162 15.12162,19.98162 C15.4197,19.98162 15.66162,20.22354 15.66162,20.52162 L16.74162,20.52162 C16.74162,19.62738 16.01586,18.90162 15.12162,18.90162 L14.04162,18.90162 C13.14657,18.90162 12.42162,19.62738 12.42162,20.52162 C12.42162,20.52162 12.42162,20.82348 12.42162,20.82348 C12.42162,21.520188 12.867336,22.139838 13.529214,22.360212 C13.529106,22.360158 15.292206,22.947678 15.292206,22.947678 C15.29226,22.947678 15.29226,22.947732 15.292314,22.947732 C15.51285,23.021172 15.66162,23.227614 15.66162,23.45976 L15.66162,23.76162 C15.66162,24.05997 15.4197,24.30162 15.12162,24.30162 C15.12162,24.30162 14.04162,24.30162 14.04162,24.30162 C13.74327,24.30162 13.50162,24.05997 13.50162,23.76162 L12.42162,23.76162 Z" id="Fill-14" fill="#295183"></path>
                <path d="M18.36162,25.38162 L18.36162,20.52162 C18.36162,20.22354 18.60327,19.98162 18.90162,19.98162 C18.90162,19.98162 19.98162,19.98162 19.98162,19.98162 C20.2797,19.98162 20.52162,20.22354 20.52162,20.52162 L20.52162,25.38162 L21.60162,25.38162 L21.60162,20.52162 C21.60162,19.62738 20.87586,18.90162 19.98162,18.90162 L18.90162,18.90162 C18.00657,18.90162 17.28162,19.62738 17.28162,20.52162 C17.28162,20.52162 17.28162,25.38162 17.28162,25.38162 L18.36162,25.38162 Z" id="Fill-15" fill="#295183"></path>
                <polygon id="Fill-16" fill="#295183" points="17.82162 23.22162 21.06162 23.22162 21.06162 22.14162 17.82162 22.14162"></polygon>
                <path d="M23.22162,24.30162 L25.38162,24.30162 L25.38162,25.38162 L22.68162,25.38162 C22.383378,25.38162 22.14162,25.139862 22.14162,24.84162 L22.14162,18.90162 L23.22162,18.90162 L23.22162,24.30162 Z" id="Fill-17" fill="#295183"></path>
                <polygon id="Fill-18" fill="#43A5F4" points="3.24162 31.32162 5.94162 31.32162 5.94162 3.24162 3.24162 3.24162"></polygon>
                <path d="M5.94162,31.86162 C6.239862,31.86162 6.48162,31.619862 6.48162,31.32162 L6.48162,3.24162 C6.48162,2.943378 6.239862,2.70162 5.94162,2.70162 L3.24162,2.70162 C2.943378,2.70162 2.70162,2.943378 2.70162,3.24162 L2.70162,31.32162 C2.70162,31.619862 2.943378,31.86162 3.24162,31.86162 L5.94162,31.86162 Z M3.78162,30.78162 L5.40162,30.78162 L5.40162,3.78162 L3.78162,3.78162 L3.78162,30.78162 Z" id="Fill-19" fill="#295183"></path>
                <path d="M8.10162,34.02162 L1.08162,34.02162 L1.08162,32.94162 C1.08162,32.04684 1.8063,31.32162 2.70162,31.32162 L6.48162,31.32162 C7.3764,31.32162 8.10162,32.04684 8.10162,32.94162 L8.10162,34.02162 Z" id="Fill-20" fill="#43A5F4"></path>
                <path d="M8.10162,34.56162 C8.399862,34.56162 8.64162,34.319862 8.64162,34.02162 L8.64162,32.94162 C8.64162,31.748598 7.674642,30.78162 6.48162,30.78162 L2.70162,30.78162 C1.507842,30.78162 0.54162,31.748598 0.54162,32.94162 L0.54162,34.02162 C0.54162,34.319862 0.783378,34.56162 1.08162,34.56162 L8.10162,34.56162 Z M7.56162,33.48162 L7.56162,32.94162 C7.56162,32.345082 7.078158,31.86162 6.48162,31.86162 L2.70162,31.86162 C2.104758,31.86162 1.62162,32.345082 1.62162,32.94162 L1.62162,33.48162 L7.56162,33.48162 Z" id="Fill-21" fill="#295183"></path>
            </g>
        </g>
    </g>
</svg>