<?xml version="1.0" encoding="UTF-8"?>
<svg width="76px" height="36px" viewBox="0 0 76 36" version="1.1" xmlns="http://www.w3.org/2000/svg" xmlns:xlink="http://www.w3.org/1999/xlink">
    <!-- Generator: Sketch 58 (84663) - https://sketch.com -->
    <title>rate_check_logo</title>
    <desc>Created with Sketch.</desc>
    <g id="Products" stroke="none" stroke-width="1" fill="none" fill-rule="evenodd">
        <g id="rate_check_address_lightbox_image_r1-copy" transform="translate(-592.000000, -152.000000)" fill-rule="nonzero">
            <g id="rate_check_logo" transform="translate(592.000000, 152.000000)">
                <path d="M15.1603281,8.37397264 C15.805111,7.86920827 16.698014,7.8760537 17.3354743,8.39064849 L17.3354743,8.39064849 L31.3146125,19.6754155 C32.090699,20.3019173 32.2282227,21.45975 31.6217802,22.2615072 C31.0153376,23.0632642 29.8945763,23.2053367 29.1184898,22.5788349 L29.1184898,22.5788349 L16.2207138,12.167006 L2.86055279,22.625926 C2.07555125,23.2404597 0.956954438,23.0812189 0.362096894,22.2702519 C-0.232760657,21.4592849 -0.0786185013,20.3036884 0.706383036,19.6891547 L0.706383036,19.6891547 L4.70151456,16.5614893 L4.70151464,11.1239988 L8.73348087,11.1239988 L8.73335922,13.4051064 L15.1603281,8.37397264 Z" id="Combined-Shape" fill="#F9F5F5"></path>
                <path d="M23,28.5315976 L23,32.8902439 C23,33.5031452 22.5091314,34 21.9036145,34 L17.515625,34 L17.5155663,28.5315976 L23,28.5315976 Z M15.4842771,28.5315976 L15.484375,34 L11.0963855,34 C10.4908685,34 10,33.5031452 10,32.8902439 L10,28.5315976 L15.4842771,28.5315976 Z M15.484375,21 L15.4842771,26.4682439 L10,26.4682439 L10,22.1097561 C10,21.4968548 10.4908685,21 11.0963855,21 L15.484375,21 Z M21.9036145,21 C22.5091314,21 23,21.4968548 23,22.1097561 L23,26.4682439 L17.5155663,26.4682439 L17.515625,21 L21.9036145,21 Z" id="Combined-Shape" fill="#F9F5F5"></path>
                <path d="M50.334255,1.52215162 C51.0688325,0.778109311 52.2591037,0.778833668 52.9928001,1.52376952 C53.7264965,2.26870537 53.7257822,3.47576067 52.9912047,4.21980297 L45.1858382,11.70174 C44.9781085,11.5302089 44.6048478,11.4444444 44.0660498,11.4444444 C43.3645517,11.4444444 42.9370826,11.594443 42.7836299,11.8944444 C42.7069036,12.0500008 42.6603204,12.191666 42.643879,12.3194444 C42.6274376,12.4472228 42.6192171,12.6388876 42.6192171,12.8944444 L42.6190605,14.3014286 L33.9614905,23.0707114 C32.8539401,24.1925324 31.102876,24.3113709 29.8589737,23.3580244 L29.8107692,23.3203384 L16.7179971,12.8803919 C15.9018507,12.2296111 15.7604597,11.0311022 16.4021914,10.2034473 C17.0439231,9.37579221 18.2257668,9.23240745 19.0419132,9.88318824 L31.6977801,19.9747541 L50.334255,1.52215162 Z" id="Combined-Shape" fill="#43A5F4"></path>
                <g id="Group-Copy" transform="translate(44.000000, 10.000000)">
                    <path d="M5.8392233,3.08368421 C6.04582627,3.15000033 6.2170867,3.26328867 6.35300971,3.42355263 C6.48893272,3.58381659 6.5568932,3.84078771 6.5568932,4.19447368 C6.5568932,4.54815966 6.45359326,4.9349979 6.24699029,5.355 C6.04038731,5.7750021 5.74136118,5.985 5.34990291,5.985 C5.17374669,5.985 5.0041986,5.94918984 4.84125456,5.87756853 L4.78718447,5.85236842 C4.60776609,5.76394693 4.3712636,5.71973684 4.0776699,5.71973684 C3.78407619,5.71973684 3.50951584,5.82473578 3.25398058,6.03473684 C2.99844533,6.24473788 2.87067961,6.49894588 2.87067961,6.79736842 L2.87067961,10.2789474 C2.87067961,10.5331592 2.86252435,10.7238152 2.84621359,10.8509211 C2.82990283,10.9780269 2.77825286,11.1244728 2.69126214,11.2902632 C2.52815452,11.577633 2.10408109,11.7213158 1.41902913,11.7213158 C0.897084769,11.7213158 0.521942889,11.6273694 0.293592233,11.4394737 C0.119610781,11.2847361 0.0217476816,11.0471069 -8.52651283e-14,10.7265789 L-8.52651283e-14,4.42657895 C-8.52651283e-14,4.17236714 0.00815525825,3.98171116 0.0244660194,3.85460526 C0.0407767806,3.72749937 0.0869899107,3.58657972 0.163106796,3.43184211 C0.315340567,3.13341955 0.739413996,2.98421053 1.43533981,2.98421053 C2.08777025,2.98421053 2.49553316,3.11131453 2.65864078,3.36552632 C2.77825302,3.54236931 2.83805825,3.72473591 2.83805825,3.91263158 C2.89242745,3.83526276 2.97126162,3.74131634 3.07456311,3.63078947 C3.17786459,3.52026261 3.39805656,3.37105358 3.73514563,3.18315789 C4.07223469,2.99526223 4.36854242,2.90131579 4.62407767,2.90131579 C4.87961292,2.90131579 5.09436806,2.91513144 5.26834951,2.94276316 C5.44233097,2.97039488 5.63262032,3.01736809 5.8392233,3.08368421 Z M12.5429126,3.91263158 C12.6081557,3.29368112 13.0376659,2.98421053 13.8314563,2.98421053 C14.2555361,2.98421053 14.5708727,3.01736809 14.7774757,3.08368421 C14.9840787,3.15000033 15.1281549,3.26605179 15.2097087,3.43184211 C15.2912625,3.5976324 15.3401941,3.74407832 15.3565049,3.87118421 C15.3715609,3.98851273 15.379668,4.15999044 15.3808261,4.38562184 L15.3809709,10.2457895 C15.3809709,10.5000013 15.3728156,10.6906573 15.3565049,10.8177632 C15.3401941,10.9448691 15.293981,11.091315 15.2178641,11.2571053 C15.0656303,11.5444751 14.6932069,11.6881579 14.1005825,11.6881579 C13.5079582,11.6881579 13.111069,11.6135534 12.9099029,11.4643421 C12.7087369,11.3151308 12.5918448,11.0968435 12.5592233,10.8094737 C12.1568912,11.3952661 11.4854416,11.6881579 10.5448544,11.6881579 C9.60426714,11.6881579 8.73165451,11.2515833 7.92699029,10.3784211 C7.12232607,9.5052588 6.72,8.49118999 6.72,7.33618421 C6.72,6.18117843 7.12504449,5.16987276 7.93514563,4.30223684 C8.74524677,3.43460092 9.63416991,3.00078947 10.6019417,3.00078947 C10.9716523,3.00078947 11.3087363,3.0671046 11.6132039,3.19973684 C11.9176714,3.33236908 12.1297081,3.45670994 12.2493204,3.57276316 C12.3689326,3.68881637 12.4667957,3.80210471 12.5429126,3.91263158 Z M9.57436893,7.36105263 C9.57436893,7.72579129 9.71572674,8.05460379 9.9984466,8.3475 C10.2811665,8.64039621 10.6236873,8.78684211 11.0260194,8.78684211 C11.4283515,8.78684211 11.7627171,8.63763306 12.0291262,8.33921053 C12.2955353,8.04078797 12.4287379,7.71197548 12.4287379,7.35276316 C12.4287379,6.99355083 12.3009721,6.65921207 12.0454369,6.34973684 C11.7899016,6.04026161 11.4473808,5.88552632 11.0178641,5.88552632 C10.5883474,5.88552632 10.2403897,6.04026161 9.97398058,6.34973684 C9.70757148,6.65921207 9.57436893,6.99631396 9.57436893,7.36105263 Z M21.6768932,5.91868421 L20.616699,5.85236842 L20.616699,8.14026316 C20.616699,8.43868569 20.6629122,8.65420986 20.7553398,8.78684211 C20.8477675,8.91947435 21.0217463,8.98578947 21.2772816,8.98578947 C21.5328168,8.98578947 21.7285431,8.99407887 21.864466,9.01065789 C22.000389,9.02723692 22.1444652,9.0797364 22.296699,9.16815789 C22.5467974,9.31184283 22.6718447,9.68210228 22.6718447,10.2789474 C22.6718447,10.9752666 22.5196132,11.4007887 22.2151456,11.5555263 C22.0520381,11.6328951 21.9079618,11.6798683 21.7829126,11.6964474 C21.6578635,11.7130264 21.4757294,11.7213158 21.2365049,11.7213158 C20.1056255,11.7213158 19.2466049,11.4615815 18.6594175,10.9421053 C18.0722301,10.422629 17.7786408,9.54395356 17.7786408,8.30605263 L17.7786408,5.85236842 C17.5720377,5.88552647 17.3491275,5.90210526 17.1099029,5.90210526 C16.8706784,5.90210526 16.6722338,5.80815884 16.5145631,5.62026316 C16.3568924,5.43236749 16.2780583,5.11184436 16.2780583,4.65868421 C16.2780583,4.20552406 16.3052424,3.87671155 16.3596117,3.67223684 C16.4139809,3.46776213 16.4900966,3.32131623 16.5879612,3.23289474 C16.7619427,3.08920982 16.9794162,3.01736842 17.2403883,3.01736842 L17.7786408,3.08368421 L17.7786408,1.37605263 C17.7786408,1.12184083 17.786796,0.933947976 17.8031068,0.812368421 C17.8194176,0.690788866 17.8710675,0.558158613 17.9580583,0.414473684 C18.0994183,0.138156513 18.5180548,-7.10542736e-15 19.2139806,-7.10542736e-15 C19.9534018,-7.10542736e-15 20.3937856,0.204471639 20.5351456,0.613421053 C20.5895149,0.790264042 20.616699,1.07210333 20.616699,1.45894737 L20.616699,3.08368421 L20.7718524,3.06976603 C21.148912,3.03701738 21.4447925,3.01961986 21.6595,3.0175731 L21.7013592,3.01736842 C21.9460207,3.01736842 22.1308732,3.02565782 22.2559223,3.04223684 C22.3684666,3.05715797 22.4964227,3.10117465 22.639794,3.17428805 L22.6881553,3.19973684 C22.9708752,3.34342176 23.112233,3.76894383 23.112233,4.47631579 C23.112233,5.17263507 22.9654383,5.59815712 22.6718447,5.75289474 C22.5087371,5.83026355 22.3646608,5.87723676 22.2396117,5.89381579 L22.1774572,5.90087904 C22.0553684,5.9127492 21.888515,5.91868421 21.6768932,5.91868421 Z" id="rate" fill="#F9F6F6"></path>
                    <path d="M28.0869903,2.80184211 C29.5984542,2.80184211 30.7075692,3.34341564 31.4143689,4.42657895 C31.7840795,5.00131866 31.968932,5.63131236 31.968932,6.31657895 C31.968932,6.99079285 31.8031085,7.49091943 31.4714563,7.81697368 C31.1398041,8.14302794 30.7728176,8.30605263 30.3704854,8.30605263 L26.5048544,8.30605263 C26.5048544,8.61552786 26.68427,8.87526212 27.0431068,9.08526316 C27.4019436,9.2952642 27.7607748,9.40026316 28.1196117,9.40026316 C28.7502944,9.40026316 29.2450467,9.33394803 29.6038835,9.20131579 L29.783301,9.135 C30.0442731,9.01342045 30.2617466,8.95263158 30.4357282,8.95263158 C30.783691,8.95263158 31.0827172,9.20131331 31.3328155,9.69868421 C31.4741755,9.99710676 31.5448544,10.2513147 31.5448544,10.4613158 C31.5448544,11.4450049 30.3868078,11.9368421 28.0706796,11.9368421 C27.2660154,11.9368421 26.5510711,11.7959225 25.9258252,11.5140789 C25.3005794,11.2322354 24.8139823,10.8592128 24.4660194,10.395 C23.7809675,9.49973236 23.4384466,8.49947921 23.4384466,7.39421053 C23.4384466,6.00157198 23.8815489,4.88803048 24.767767,4.05355263 C25.6539851,3.21907478 26.7603817,2.80184211 28.0869903,2.80184211 Z M28.0462136,5.42131579 C27.6928138,5.42131579 27.3421376,5.56776169 26.9941748,5.86065789 C26.6462119,6.1535541 26.472233,6.46578782 26.472233,6.79736842 L26.472233,6.79736842 L28.5273786,6.79736842 C28.9405845,6.79736842 29.1471845,6.62052808 29.1471845,6.26684211 C29.1471845,6.0126303 29.0520398,5.80815867 28.8617476,5.65342105 C28.6714554,5.49868344 28.3996134,5.42131579 28.0462136,5.42131579 Z" id="Combined-Shape" fill="#F5F3F3"></path>
                </g>
                <path d="M34.9311621,31.4467005 C34.9311621,31.9086317 35.0831468,32.2688227 35.3871206,32.5272843 C35.6910945,32.7857458 36.0140619,32.9149745 36.3560325,32.9149745 C36.6980032,32.9149745 37.0182565,32.8132412 37.3168024,32.6097715 C37.6153482,32.4063019 37.8568952,32.3045685 38.0414508,32.3045685 C38.3671371,32.3045685 38.7633828,32.5960208 39.2301999,33.1789341 C39.4798926,33.4978866 39.6047372,33.7838397 39.6047372,34.036802 C39.6047372,34.4547398 39.306196,34.8451759 38.7091044,35.2081218 C38.0903004,35.6480563 37.3303771,35.8680202 36.4293116,35.8680202 C35.419684,35.8680202 34.4480678,35.4995807 33.5144337,34.7626904 C33.0693292,34.4107428 32.7056515,33.9405698 32.4233902,33.3521573 C32.1411286,32.7637449 32,32.1148513 32,31.4054568 C32,30.6960625 32.1411286,30.0526679 32.4233902,29.4752538 C32.7056515,28.8978397 33.0693292,28.433166 33.5144337,28.0812182 C34.4154991,27.3553263 35.3762594,26.9923858 36.3967432,26.9923858 C36.8092792,26.9923858 37.2109528,27.0501263 37.6017765,27.1656091 L37.7354316,27.2062535 C38.0588632,27.307579 38.3019978,27.4067627 38.4648408,27.5038071 L38.7253885,27.6687818 L38.9859365,27.8461295 C39.0619294,27.8983713 39.1270661,27.9437393 39.1813472,27.9822336 C39.4636086,28.2022008 39.6047372,28.4524097 39.6047372,28.732868 C39.6047372,29.0133262 39.4907487,29.3295244 39.2627683,29.681472 C38.8719448,30.2863821 38.4974111,30.5888325 38.1391562,30.5888325 C37.9328881,30.5888325 37.6397748,30.4678523 37.2598076,30.2258884 C37.0643958,30.0389161 36.7848525,29.9454315 36.4211696,29.9454315 C36.0574865,29.9454315 35.718235,30.0774099 35.403405,30.3413705 C35.0885747,30.6053313 34.9311621,30.9737708 34.9311621,31.4467005 Z M45.3205033,27.1243654 C46.4061243,27.1243654 47.3098903,27.542297 48.0318282,28.3781725 C48.7537663,29.2140482 49.1147299,30.2368806 49.1147299,31.4467005 L49.1147299,34.3502538 C49.1147299,34.6032161 49.1065877,34.7929351 49.0903035,34.9194162 C49.0740192,35.0458974 49.0224529,35.1916235 48.9356033,35.356599 C48.7944725,35.6425564 48.3765148,35.785533 47.6817173,35.785533 C47.0194885,35.785533 46.6069586,35.6425564 46.4441155,35.356599 C46.3572658,35.1916235 46.3056995,35.0431478 46.2894152,34.9111675 L46.2824776,34.8455679 C46.2718783,34.728426 46.2660969,34.5722373 46.2651334,34.3770012 L46.2649889,31.430203 C46.2649889,30.9792702 46.1401443,30.6273279 45.8904516,30.3743654 C45.6407587,30.1214031 45.3232194,29.9949238 44.9378238,29.9949238 C44.5524283,29.9949238 44.2131768,30.1131546 43.9200592,30.3496192 C43.6269416,30.5860841 43.4586727,30.8527903 43.415248,31.1497462 L43.415248,34.3502538 C43.415248,34.6032161 43.407106,34.7929351 43.3908216,34.9194162 C43.3745373,35.0458974 43.322971,35.1916235 43.2361214,35.356599 C43.0949907,35.6425564 42.6770329,35.785533 41.9822354,35.785533 C41.2982941,35.785533 40.8803363,35.6370574 40.7283494,35.3401015 C40.6523558,35.175126 40.6062176,35.0321495 40.5899333,34.9111675 C40.5748122,34.7988271 40.5667117,34.6248478 40.5656317,34.3892251 L40.565507,24.468274 C40.565507,24.2153117 40.5736491,24.0255929 40.5899333,23.8991116 C40.6062176,23.7726306 40.6523558,23.6324035 40.7283494,23.4784265 C40.8803363,23.1814706 41.3037222,23.0329949 41.9985196,23.0329949 C42.6617354,23.0329949 43.0697397,23.1726084 43.2225436,23.4518394 L43.2361214,23.4784265 C43.322971,23.6434018 43.3745373,23.789128 43.3908216,23.9156091 L43.3977592,23.9784754 C43.4094185,24.1019622 43.415248,24.2707265 43.415248,24.4847715 L43.415248,28.1307106 C43.9580585,27.4598105 44.5931373,27.1243654 45.3205033,27.1243654 Z M58.6898593,30.4073604 C58.6898593,31.0782606 58.5243046,31.575929 58.1931902,31.9003808 C57.8620758,32.2248324 57.4956843,32.3870558 57.0940044,32.3870558 L53.2346411,32.3870558 C53.2346411,32.69501 53.4137658,32.9534677 53.7720207,33.1624366 C54.1302756,33.3714055 54.4885252,33.4758884 54.8467802,33.4758884 C55.4764403,33.4758884 55.9703905,33.4098985 56.3286455,33.2779187 L56.5077719,33.211929 C56.768321,33.0909469 56.985442,33.0304568 57.1591414,33.0304568 C57.50654,33.0304568 57.8050814,33.2779164 58.0547743,33.7728427 C58.1959049,34.0697984 58.2664693,34.3227569 58.2664693,34.531726 C58.2664693,35.5105802 57.1103002,36 54.7979275,36 C53.9945679,36 53.2807828,35.8597729 52.6565506,35.5793147 C52.0323186,35.2988564 51.5465104,34.9276673 51.1991118,34.4657361 C50.5151706,33.5748686 50.173205,32.5795318 50.173205,31.4796954 C50.173205,30.0939017 50.6155889,28.9858332 51.5003701,28.1554568 C52.3851512,27.3250804 53.489754,26.9098985 54.8142116,26.9098985 C56.3232249,26.9098985 57.4305418,27.4488102 58.1361954,28.5266497 C58.5053066,29.0985645 58.6898593,29.725462 58.6898593,30.4073604 Z M55.253886,30.8857868 C55.6664221,30.8857868 55.8726869,30.7098157 55.8726869,30.357868 C55.8726869,30.1049057 55.7776965,29.9014391 55.5877127,29.7474619 C55.3977291,29.5934849 55.126328,29.5164975 54.7735011,29.5164975 C54.4206742,29.5164975 54.0705667,29.6622236 53.723168,29.9536803 C53.3757694,30.2451368 53.2020725,30.5558359 53.2020725,30.8857868 L55.253886,30.8857868 Z M62.4352332,31.4467005 C62.4352332,31.9086317 62.5872179,32.2688227 62.8911917,32.5272843 C63.1951655,32.7857458 63.518133,32.9149745 63.8601036,32.9149745 C64.2020743,32.9149745 64.5223276,32.8132412 64.8208734,32.6097715 C65.1194193,32.4063019 65.3609662,32.3045685 65.5455218,32.3045685 C65.8712082,32.3045685 66.2674539,32.5960208 66.7342708,33.1789341 C66.9839637,33.4978866 67.1088083,33.7838397 67.1088083,34.036802 C67.1088083,34.4547398 66.8102671,34.8451759 66.2131754,35.2081218 C65.5943714,35.6480563 64.8344481,35.8680202 63.9333827,35.8680202 C62.9237551,35.8680202 61.9521389,35.4995807 61.0185048,34.7626904 C60.5734001,34.4107428 60.2097226,33.9405698 59.9274611,33.3521573 C59.6451997,32.7637449 59.5040711,32.1148513 59.5040711,31.4054568 C59.5040711,30.6960625 59.6451997,30.0526679 59.9274611,29.4752538 C60.2097226,28.8978397 60.5734001,28.433166 61.0185048,28.0812182 C61.9195702,27.3553263 62.8803305,26.9923858 63.9008142,26.9923858 C64.3133503,26.9923858 64.7150239,27.0501263 65.1058476,27.1656091 L65.2395027,27.2062535 C65.5629343,27.307579 65.8060687,27.4067627 65.9689119,27.5038071 L66.2294596,27.6687818 L66.4900076,27.8461295 C66.5660004,27.8983713 66.6311372,27.9437393 66.6854181,27.9822336 C66.9676797,28.2022008 67.1088083,28.4524097 67.1088083,28.732868 C67.1088083,29.0133262 66.9948198,29.3295244 66.7668394,29.681472 C66.3760159,30.2863821 66.0014821,30.5888325 65.6432272,30.5888325 C65.4369592,30.5888325 65.1438459,30.4678523 64.7638786,30.2258884 C64.5684669,30.0389161 64.2889236,29.9454315 63.9252405,29.9454315 C63.5615576,29.9454315 63.2223061,30.0774099 62.9074759,30.3413705 C62.5926458,30.6053313 62.4352332,30.9737708 62.4352332,31.4467005 Z M73.215396,31.430203 L75.3811992,33.2449238 C75.6526044,33.4758895 75.8235871,33.6518606 75.8941524,33.7728427 C75.9647179,33.8938246 76,34.0093058 76,34.1192894 C76,34.38325 75.8317313,34.7406914 75.4951888,35.1916243 C75.1260776,35.6535556 74.8003962,35.8845177 74.5181347,35.8845177 C74.279298,35.8845177 73.9481886,35.7250439 73.5247964,35.4060914 L73.3619541,35.2906091 L73.3042331,35.2415919 C73.0943917,35.061002 72.8024614,34.785605 72.4284371,34.4153959 L72.0303801,34.0187298 C71.5948962,33.58746 71.2571137,33.2745356 71.0170245,33.0799492 L71.0170245,34.3502538 C71.0170245,34.6032161 71.0088825,34.7929351 70.9925981,34.9194162 C70.9763138,35.0458974 70.9247475,35.1916235 70.8378978,35.356599 C70.6967671,35.6425564 70.2788094,35.785533 69.5840119,35.785533 C68.9000706,35.785533 68.4821127,35.6370574 68.3301259,35.3401015 C68.2541323,35.175126 68.2079941,35.0294 68.1917098,34.9029187 L68.1847722,34.8400526 C68.1741729,34.7277918 68.1683915,34.5781117 68.167428,34.3910096 L68.1672835,24.4517767 C68.1672835,24.1988143 68.1754255,24.0090954 68.1917098,23.8826142 C68.2079941,23.7561331 68.2541323,23.6104069 68.3301259,23.4454315 C68.4821127,23.1484757 68.9054986,23 69.6002961,23 C70.1213941,23 70.4904997,23.0934847 70.7076239,23.2804568 C70.8921796,23.434434 70.9898839,23.6763942 71.0007401,24.0063452 L71.005716,24.0604203 C71.013255,24.158183 71.0170245,24.2941334 71.0170245,24.468274 L71.0170245,29.6979695 L71.098615,29.62752 C71.2720469,29.4748326 71.5069815,29.2514167 71.8034232,28.9572682 L72.102143,28.6604999 C72.4006262,28.3666014 72.6305788,28.1515125 72.7920059,28.0152285 L72.9874167,27.8832487 C73.3673841,27.5862929 73.6930654,27.4378172 73.9644708,27.4378172 C74.2358761,27.4378172 74.5479875,27.6605307 74.9008142,28.1059644 C75.253641,28.5513981 75.4300519,28.900591 75.4300519,29.1535533 C75.4300519,29.3971467 75.2438163,29.6815309 74.8713397,30.006714 L73.215396,31.430203 Z" id="check" fill="#F9F5F5"></path>
            </g>
        </g>
    </g>
</svg>