<?xml version="1.0" encoding="UTF-8"?>
<svg width="38px" height="38px" viewBox="0 0 38 38" version="1.1" xmlns="http://www.w3.org/2000/svg" xmlns:xlink="http://www.w3.org/1999/xlink">
    <!-- Generator: Sketch 58 (84663) - https://sketch.com -->
    <title>refinance-icon</title>
    <desc>Created with Sketch.</desc>
    <g id="Products" stroke="none" stroke-width="1" fill="none" fill-rule="evenodd">
        <g id="rate_check_address_lightbox_image_r1" transform="translate(-403.000000, -357.000000)">
            <g id="refinance-icon" transform="translate(403.000000, 357.000000)">
                <path d="M2.62728,15 C2.62728,23.2842 9.34308,30 17.62728,30 C25.91148,30 32.62728,23.2842 32.62728,15 C32.62728,6.7158 25.91088,0 17.62728,0 C9.34248,0 2.62728,6.7158 2.62728,15 Z" id="Fill-1" fill="#E9EAEB"></path>
                <polygon id="Fill-2" fill="#BCC0C4" points="24.82728 9.4926 29.02728 9.4926 29.02728 8.2926 24.82728 8.2926"></polygon>
                <polygon id="Fill-3" fill="#BCC0C4" points="30.22728 9.4926 31.42728 9.4926 31.42728 8.2926 30.22728 8.2926"></polygon>
                <polygon id="Fill-4" fill="#BCC0C4" points="32.62728 9.4926 33.82728 9.4926 33.82728 8.2926 32.62728 8.2926"></polygon>
                <polygon id="Fill-5" fill="#BCC0C4" points="33.82728 6.4926 35.02728 6.4926 35.02728 5.2926 33.82728 5.2926"></polygon>
                <polygon id="Fill-6" fill="#BCC0C4" points="36.22728 6.4926 37.42728 6.4926 37.42728 5.2926 36.22728 5.2926"></polygon>
                <path d="M23.64876,4.20924 C24.2385,3.16446 25.3569,2.457 26.64108,2.457 C27.5937,2.457 28.46358,2.93886 29.08836,3.61884 C29.5467,4.11768 29.86656,4.71948 30.00384,5.2926 L32.62728,5.2926 L32.62728,6.4926 L28.88118,6.4926 L28.87968,5.8941 C28.87854,5.4213 28.60932,4.87116 28.20468,4.43076 C27.80238,3.99288 27.25458,3.657 26.64108,3.657 C25.68192,3.657 24.86568,4.26438 24.54726,5.11284 L24.33126,5.68824 L23.7612,5.4585 C23.62992,5.40558 23.4864,5.3928 23.33628,5.3928 C22.85478,5.3928 22.45032,5.73594 22.27512,6.13422 L22.11744,6.4926 L15.82728,6.4926 L15.82728,5.2926 L21.37308,5.2926 C21.79074,4.66248 22.51638,4.1928 23.33628,4.1928 C23.44248,4.1928 23.5467,4.1979 23.64876,4.20924 Z" id="Fill-7" fill="#BCC0C4"></path>
                <path d="M5.69028,7.16772 C6.2499,6.41382 7.13766,5.8872 8.13948,5.8872 C9.60864,5.8872 10.83168,7.01862 11.14068,8.2926 L16.42728,8.2926 L16.42728,9.4926 L10.02198,9.4926 L10.01634,8.8983 C10.0077,7.99182 9.16836,7.0872 8.13948,7.0872 C7.44348,7.0872 6.84828,7.51974 6.5226,8.08164 L6.3243,8.42388 L5.9316,8.37648 C5.199,8.2881 4.59792,8.77626 4.30368,9.22278 L4.12584,9.4926 L1.42728,9.4926 L1.42728,8.2926 L3.50304,8.2926 C3.98466,7.71564 4.7676,7.1949 5.69028,7.16772 Z" id="Fill-8" fill="#BCC0C4"></path>
                <polygon id="Fill-9" fill="#BCC0C4" points="17.62728 9.4926 18.82728 9.4926 18.82728 8.2926 17.62728 8.2926"></polygon>
                <polygon id="Fill-10" fill="#BCC0C4" points="20.02728 9.4926 21.22728 9.4926 21.22728 8.2926 20.02728 8.2926"></polygon>
                <polygon id="Fill-11" fill="#FFFFFF" points="6.22728 20.2926 9.82728 20.2926 9.82728 12.4926 6.22728 12.4926"></polygon>
                <path d="M10.42728,20.8926 L10.42728,11.8926 L5.62728,11.8926 L5.62728,20.8926 L10.42728,20.8926 Z M6.82728,19.6926 L9.22728,19.6926 L9.22728,13.0926 L6.82728,13.0926 L6.82728,19.6926 Z" id="Fill-12" fill="#295183"></path>
                <polygon id="Fill-13" fill="#FFFFFF" points="28.42728 37.0926 4.42728 37.0926 4.42728 20.8926 16.42728 11.2926 28.42728 20.8926"></polygon>
                <polygon id="Fill-14" fill="#43A5F4" points="16.42728 15.4926 30.2643 26.4072 32.15916 23.91342 16.42728 11.2926 0.82728 23.8926 2.62728 26.2926"></polygon>
                <path d="M27.82728,36.4926 L27.82728,24.85734 C27.82728,24.5262 28.09614,24.25734 28.42728,24.25734 C28.75848,24.25734 29.02728,24.5262 29.02728,24.85734 L29.02728,37.6926 L3.82422,37.6926 L3.88776,25.18182 C3.88944,24.85068 4.15968,24.5832 4.49082,24.58488 C4.82196,24.58656 5.08944,24.85674 5.08776,25.18788 L5.03034,36.4926 L27.82728,36.4926 Z" id="Fill-15" fill="#295183"></path>
                <path d="M16.42728,16.25454 L2.51478,27.14256 L0,23.78952 L16.42728,10.52136 L32.91,23.83398 L30.3258,27.13392 L16.42728,16.25454 Z M30.12072,25.44948 L31.23642,24.02478 L16.42728,12.06384 L1.65462,23.99568 L2.73984,25.44264 L16.42734,14.73066 L30.12072,25.44948 Z" id="Fill-16" fill="#295183"></path>
                <polygon id="Fill-17" fill="#43A5F4" points="10.42728 37.0926 15.22728 37.0926 15.22728 28.6926 10.42728 28.6926"></polygon>
                <path d="M9.82728,28.0926 L9.82728,37.6926 L15.82728,37.6926 L15.82728,28.0926 L9.82728,28.0926 Z M11.02728,36.4926 L14.62728,36.4926 L14.62728,29.2926 L11.02728,29.2926 L11.02728,36.4926 Z" id="Fill-18" fill="#295183"></path>
            </g>
        </g>
    </g>
</svg>