<?xml version="1.0" encoding="UTF-8"?>
<svg width="39px" height="34px" viewBox="0 0 39 34" version="1.1" xmlns="http://www.w3.org/2000/svg" xmlns:xlink="http://www.w3.org/1999/xlink">
    <!-- Generator: Sketch 58 (84663) - https://sketch.com -->
    <title>refi-2nd-home-icon</title>
    <desc>Created with Sketch.</desc>
    <g id="Products" stroke="none" stroke-width="1" fill="none" fill-rule="evenodd">
        <g id="rate_check_address_lightbox_image_r1" transform="translate(-601.000000, -367.000000)">
            <g id="refi-2nd-home-icon" transform="translate(601.000000, 367.000000)">
                <path d="M32.4,16.9386 C32.4,25.8858 25.1466,33.1386 16.2,33.1386 C7.2528,33.1386 0,25.8858 0,16.9386 C0,7.9914 7.2528,0.7386 16.2,0.7386 C25.1472,0.7386 32.4,7.9914 32.4,16.9386 Z" id="Fill-1" fill="#CDCFD0"></path>
                <polygon id="Fill-2" fill="#FFFFFF" points="23.4 5.5404 12 16.9404 12 33.1404 34.8 33.1404 34.8 16.9404"></polygon>
                <polygon id="Fill-3" fill="#295183" points="12.6 32.5404 14.4 32.5404 14.4 33.7404 11.4 33.7404 11.4 19.9404 12.6 19.9404"></polygon>
                <polygon id="Fill-4" fill="#295183" points="34.2 32.5404 34.2 19.9404 35.4 19.9404 35.4 33.7404 14.31018 33.7404 14.31018 32.5404"></polygon>
                <polygon id="Fill-5" fill="#43A5F4" points="13.8 8.5404 13.8 15.1404 16.8 12.1404 16.8 8.5404"></polygon>
                <polygon id="Fill-6" fill="#295183" points="23.4 6.38892 9.42426 20.36466 8.57574 19.51614 23.4 4.69188 38.22426 19.51614 37.37574 20.36466"></polygon>
                <polygon id="Fill-7" fill="#295183" points="14.4 9.1404 14.4 15.1404 13.2 15.1404 13.2 7.9404 17.4 7.9404 17.4 12.1404 16.2 12.1404 16.2 9.1404"></polygon>
                <polygon id="Fill-8" fill="#295183" points="20.2842 23.18076 20.2842 24.98076 19.0842 24.98076 19.0842 21.98076 22.6842 21.98076 22.6842 24.98076 21.4842 24.98076 21.4842 23.18076"></polygon>
                <polygon id="Fill-9" fill="#295183" points="25.6842 23.18076 25.6842 24.98076 24.4842 24.98076 24.4842 21.98076 28.0842 21.98076 28.0842 24.98076 26.8842 24.98076 26.8842 23.18076"></polygon>
                <polygon id="Fill-10" fill="#295183" points="20.2842 18.38076 20.2842 20.18076 19.0842 20.18076 19.0842 17.18076 22.6842 17.18076 22.6842 20.18076 21.4842 20.18076 21.4842 18.38076"></polygon>
                <polygon id="Fill-11" fill="#295183" points="25.6842 18.38076 25.6842 20.18076 24.4842 20.18076 24.4842 17.18076 28.0842 17.18076 28.0842 20.18076 26.8842 20.18076 26.8842 18.38076"></polygon>
                <polygon id="Fill-12" fill="#878F97" points="26.2188 7.0356 30.4188 7.0356 30.4188 5.8356 26.2188 5.8356"></polygon>
                <polygon id="Fill-13" fill="#878F97" points="31.6188 7.0356 32.8188 7.0356 32.8188 5.8356 31.6188 5.8356"></polygon>
                <polygon id="Fill-14" fill="#878F97" points="34.0188 7.0356 35.2188 7.0356 35.2188 5.8356 34.0188 5.8356"></polygon>
                <polygon id="Fill-15" fill="#878F97" points="35.2188 4.0356 36.4188 4.0356 36.4188 2.8356 35.2188 2.8356"></polygon>
                <polygon id="Fill-16" fill="#878F97" points="37.6188 4.0356 38.8188 4.0356 38.8188 2.8356 37.6188 2.8356"></polygon>
                <path d="M25.04022,1.75224 C25.63002,0.70746 26.74836,0 28.0326,0 C28.98516,0 29.8551,0.48192 30.47982,1.16184 C30.93816,1.66068 31.25802,2.26254 31.39536,2.8356 L34.0188,2.8356 L34.0188,4.0356 L30.2727,4.0356 L30.2712,3.4371 C30.27,2.96436 30.00084,2.41416 29.5962,1.97376 C29.19384,1.53588 28.64604,1.2 28.0326,1.2 C27.07338,1.2 26.2572,1.80744 25.93872,2.65584 L25.72272,3.23124 L25.15272,3.0015 C25.02144,2.94864 24.87786,2.9358 24.7278,2.9358 C24.24624,2.9358 23.84184,3.27894 23.66658,3.67728 L23.5089,4.0356 L17.2188,4.0356 L17.2188,2.8356 L22.7646,2.8356 C23.1822,2.20554 23.90784,1.7358 24.7278,1.7358 C24.83394,1.7358 24.93822,1.74096 25.04022,1.75224 Z" id="Fill-17" fill="#878F97"></path>
                <path d="M7.08174,4.71072 C7.64142,3.95682 8.52912,3.4302 9.531,3.4302 C11.00016,3.4302 12.2232,4.56162 12.53214,5.8356 L17.8188,5.8356 L17.8188,7.0356 L11.41344,7.0356 L11.4078,6.4413 C11.39922,5.53482 10.55988,4.6302 9.531,4.6302 C8.835,4.6302 8.23974,5.06274 7.91412,5.62464 L7.71576,5.96688 L7.32312,5.91948 C6.59046,5.8311 5.98938,6.31932 5.6952,6.76578 L5.51736,7.0356 L2.8188,7.0356 L2.8188,5.8356 L4.89456,5.8356 C5.37618,5.25864 6.15906,4.7379 7.08174,4.71072 Z" id="Fill-18" fill="#878F97"></path>
                <polygon id="Fill-19" fill="#878F97" points="19.0188 7.0356 20.2188 7.0356 20.2188 5.8356 19.0188 5.8356"></polygon>
            </g>
        </g>
    </g>
</svg>